<?xml version="1.0" encoding="utf-8"?>
<!-- Generator: Adobe Illustrator 27.7.0, SVG Export Plug-In . SVG Version: 6.00 Build 0)  -->
<svg version="1.1" id="Ebene_1" xmlns="http://www.w3.org/2000/svg" xmlns:xlink="http://www.w3.org/1999/xlink" x="0px" y="0px"
	 viewBox="0 0 283.46 283.46" style="enable-background:new 0 0 283.46 283.46;" xml:space="preserve">
<style type="text/css">
	.st0{fill:#2A5963;}
	.st1{fill:#E01C6B;}
	.st2{fill:#1C2B36;}
	.st3{fill:#FFFFFF;}
	.st4{fill-rule:evenodd;clip-rule:evenodd;fill:#1C2B36;}
</style>
<path class="st0" d="M204.65,111.8l-6.99-2.5c0.5-2.75,0.99-5.25,1.25-7.74c2.99-19.97-0.99-34.46-11.24-40.45
	c-5.59-2.99-12.16-3.63-18.22-1.75c-8.49,2.5-18.23,8.49-27.72,17.22c-9.49-8.74-19.22-14.73-27.72-17.22
	c-6.06-1.88-12.63-1.25-18.22,1.75c-12.74,7.49-14.73,26.22-9.99,48.19l-6.99,2.5c-18.73,7.49-29.21,17.97-29.21,29.96
	c0,11.99,10.48,22.47,29.21,29.96l6.99,2.5c-0.5,2.75-0.99,5.25-1.25,7.74c-2.99,19.97,0.99,34.46,11.24,40.45
	c3.28,1.83,6.97,2.78,10.73,2.74c2.53-0.1,5.03-0.43,7.49-0.99c8.49-2.5,18.23-8.49,27.72-17.22c9.49,8.74,19.22,14.73,27.72,17.22
	c2.46,0.57,4.96,0.9,7.49,0.99c3.75,0.04,7.45-0.91,10.73-2.74c12.74-7.49,14.73-26.22,9.99-48.19l6.99-2.5
	c18.73-7.49,29.21-17.97,29.21-29.96S223.38,119.29,204.65,111.8z M172.69,71.36L172.69,71.36l4.24-0.5h0.01
	c1.56-0.09,3.11,0.25,4.49,0.99c6.24,3.75,7.74,16.48,4.24,33.96c-6.74-1.5-13.99-2.5-21.48-3.49c-4.5-5.99-8.99-11.73-13.73-16.98
	C158.96,77.6,166.7,73.11,172.69,71.36z M104.04,156.75l2.99,5.25c0.99,1.88,2.07,3.72,3.24,5.49l-9.24-1.75L104.04,156.75z
	 M101.03,118.05l9.24-2l-3.25,5.49l-2.99,5.25L101.03,118.05z M105.08,141.73l36.65-36.65l36.65,36.65l-36.65,36.65L105.08,141.73z
	 M176.43,162L176.43,162l3-5.25l2.99,8.99l-9.24,1.75C174.37,165.71,175.45,163.88,176.43,162z M179.44,126.79l-2.99-5.25
	l-3.25-5.49l9.24,2L179.44,126.79z M141.73,94.07l6.24,7.24h-12.48L141.73,94.07z M102.04,71.86L102.04,71.86
	c2.72-1.34,5.87-1.52,8.74-0.5c5.99,1.75,13.73,6.24,22.22,13.99c-4.74,5.25-9.24,10.98-13.73,16.98c-7.49,0.99-14.73,2-21.48,3.49
	C94.29,88.34,95.8,75.6,102.04,71.86z M89.05,162.24L89.05,162.24l-5.75-2c-13.24-5.25-21.22-12.23-21.22-18.47
	s10.24-14.98,26.97-20.47c2.24,6.74,4.74,13.48,7.74,20.47C93.86,148.46,91.27,155.28,89.05,162.24z M110.78,212.17l-0.01,0
	L110.78,212.17c-2.87,1.03-6.02,0.84-8.74-0.5c-6.24-3.75-7.74-16.48-4.24-33.96c6.74,1.5,13.99,2.5,21.48,3.49
	c4.5,5.99,8.99,11.73,13.73,16.98C124.51,205.93,116.77,210.43,110.78,212.17z M141.73,189.46l-6.24-7.24h12.48L141.73,189.46z
	 M181.43,211.68L181.43,211.68c-2.72,1.34-5.87,1.52-8.74,0.5c-5.99-1.75-13.73-6.24-22.22-13.99c4.74-5.25,9.24-10.98,13.73-16.98
	c7.49-0.99,14.73-2,21.48-3.49C189.17,195.19,187.67,207.93,181.43,211.68z M200.15,160.24L200.15,160.24l-5.74,2
	c-2.18-6.96-4.77-13.8-7.74-20.47c2.97-6.67,5.56-13.51,7.74-20.47c16.73,5.49,26.96,13.24,26.96,20.47
	C221.38,149,213.39,155,200.15,160.24z"/>
<polygon class="st1" points="141.98,164.94 118.45,141.42 141.98,117.89 165.5,141.42 "/>
</svg>
